<?xml version="1.0" encoding="utf-8"?>
<!-- Generator: Adobe Illustrator 27.5.0, SVG Export Plug-In . SVG Version: 6.00 Build 0)  -->
<svg version="1.1" xmlns="http://www.w3.org/2000/svg" xmlns:xlink="http://www.w3.org/1999/xlink" x="0px" y="0px"
	 viewBox="0 0 750 500" style="enable-background:new 0 0 750 500;" xml:space="preserve">
<g id="BACKGROUND">
	<g>
		<g>
			<g>
				<rect x="0" y="0" style="fill:#EAEAEA;" width="750" height="500"/>
			</g>
		</g>
	</g>
	<rect style="fill:#FFFFFF;" width="750" height="500"/>
</g>
<g id="OBJECTS">
	<g>
		<path style="fill:#EEC2FF;" d="M674.525,142.599c-5.785-32.228-30.677-59.766-61.509-70.79C582.185,60.784,548.06,59.5,505.361,83
			c-33.892,18.653-49.636,10.247-49.636,10.247c-25.452,8.384,9.904-3.772-14.301-15.269
			c-52.196-24.794-110.469-36.816-168.217-34.332c-28.56,1.228-58.132,6.385-81.292,23.142
			c-23.161,16.757-37.995,47.595-28.928,74.706c6.961,20.816,26.556,37.047,28.007,58.948c1.676,25.293-21.171,44.744-42.227,58.857
			c-22.283,14.935-45.869,29.712-60.382,52.273c-12.975,20.171-20.815,50.848-6.317,72.864
			c22.301,33.866,102.925,39.497,122.066,42.205c40.975,5.796,100.349,2.338,141.742,1.292
			c71.972-1.818,144.296-16.362,208.646-48.646c14.897-7.474,30.586-17.405,35.169-33.429c8.444-29.524-25.513-61.142-12.4-88.909
			c10.01-21.198,38.957-22.648,59.886-33.208C665.671,209.364,680.165,174.012,674.525,142.599z"/>
		<g>
			<g>
				<g>
					<circle style="fill:#546CE2;" cx="409.669" cy="113.356" r="67.782"/>
					<circle style="fill:#8540F2;" cx="409.669" cy="113.356" r="57.849"/>
					<g>
						<g>
							
								<rect x="385.261" y="146.305" transform="matrix(-0.866 -0.5 0.5 -0.866 644.8488 479.5511)" style="fill:#FFFFFF;" width="2.823" height="14.155"/>
							
								<rect x="431.296" y="66.569" transform="matrix(-0.866 -0.5 0.5 -0.866 770.6196 353.7802)" style="fill:#FFFFFF;" width="2.823" height="14.155"/>
						</g>
						<g>
							
								<rect x="408.278" y="152.472" transform="matrix(-1 -9.215397e-11 9.215397e-11 -1 819.3794 319.0995)" style="fill:#FFFFFF;" width="2.823" height="14.155"/>
							
								<rect x="408.278" y="60.402" transform="matrix(-1 -8.925406e-11 8.925406e-11 -1 819.3794 134.9582)" style="fill:#FFFFFF;" width="2.823" height="14.155"/>
						</g>
						<g>
							
								<rect x="431.296" y="146.305" transform="matrix(-0.866 0.5 -0.5 -0.866 884.134 69.8614)" style="fill:#FFFFFF;" width="2.823" height="14.155"/>
							
								<rect x="385.261" y="66.569" transform="matrix(-0.866 0.5 -0.5 -0.866 758.3632 -55.9095)" style="fill:#FFFFFF;" width="2.823" height="14.155"/>
						</g>
						<g>
							
								<rect x="448.146" y="129.455" transform="matrix(-0.5 0.866 -0.866 -0.5 792.5765 -184.5301)" style="fill:#FFFFFF;" width="2.823" height="14.155"/>
							
								<rect x="368.411" y="83.419" transform="matrix(-0.5 0.866 -0.866 -0.5 633.1054 -184.5301)" style="fill:#FFFFFF;" width="2.823" height="14.155"/>
						</g>
						<g>
							
								<rect x="454.314" y="106.437" transform="matrix(-1.359750e-10 1 -1 -1.359750e-10 569.2394 -342.2106)" style="fill:#FFFFFF;" width="2.823" height="14.155"/>
							
								<rect x="362.243" y="106.437" transform="matrix(-1.353310e-10 1 -1 -1.353310e-10 477.1688 -250.1399)" style="fill:#FFFFFF;" width="2.823" height="14.155"/>
						</g>
						<g>
							
								<rect x="448.146" y="83.419" transform="matrix(0.5 0.866 -0.866 0.5 303.1512 -344.0798)" style="fill:#FFFFFF;" width="2.823" height="14.155"/>
							
								<rect x="368.411" y="129.455" transform="matrix(0.5 0.866 -0.866 0.5 303.1512 -252.0091)" style="fill:#FFFFFF;" width="2.823" height="14.155"/>
						</g>
					</g>
					<g>
						<path style="fill:#FF24A7;" d="M412.874,84.595c-2.887-4.425-2.794-11.411-2.794-11.411h-0.322h-0.179h-0.322
							c0,0,0.093,6.987-2.794,11.411s-3.446,8.617-0.931,10.713c2.514,2.096,2.887,7.608,2.328,9.238
							c-0.559,1.63-0.838,5.822,0.372,7.763c0.869,1.393,1.275,1.027,1.436,0.709c0.161,0.318,0.567,0.685,1.436-0.709
							c1.211-1.941,0.931-6.133,0.372-7.763c-0.559-1.63-0.186-7.142,2.328-9.238S415.761,89.02,412.874,84.595z"/>
						<path style="fill:#FF24A7;" d="M446.562,152.568c0,0-6.612-6.787-8.67-13.12s-5.581-10.83-9.362-11.149
							c-3.782-0.319-9.214-5.466-10.337-7.451c-1.123-1.985-4.848-6.288-7.542-7.355c-1.933-0.766-1.884-0.126-1.702,0.297
							c-0.414-0.201-1.051-0.28-0.375,1.687c0.943,2.739,5.072,6.657,7.003,7.87c1.931,1.213,6.825,6.875,6.971,10.667
							c0.145,3.792,4.476,7.517,10.709,9.862c6.233,2.345,12.71,9.261,12.71,9.261l0.233-0.222l0,0L446.562,152.568z"/>
						<circle style="fill:#FFFFFF;" cx="409.669" cy="113.691" r="4.741"/>
					</g>
				</g>
				<g>
					<g>
						<g>
							<g>
								<g>
									<rect x="318.459" y="346.905" style="fill:#3D39C6;" width="11.724" height="78.548"/>
									<rect x="310.705" y="337.291" style="fill:#3D39C6;" width="27.232" height="15.031"/>
								</g>
								<path style="fill:#3D39C6;" d="M375,432.748c-1.783-8.149-23.783-14.59-50.679-14.59c-26.896,0-48.897,6.441-50.679,14.59
									H375z"/>
							</g>
						</g>
						<linearGradient id="SVGID_1_" gradientUnits="userSpaceOnUse" x1="333.9565" y1="346.1915" x2="333.9565" y2="159.3345">
							<stop  offset="0" style="stop-color:#87206A"/>
							<stop  offset="0.3439" style="stop-color:#8C206A"/>
							<stop  offset="0.7381" style="stop-color:#9A206A"/>
							<stop  offset="1" style="stop-color:#A7206A"/>
						</linearGradient>
						<path style="fill:url(#SVGID_1_);" d="M261.876,313.598c0,0-9.855,20.678,2.904,25.85
							c12.759,5.172,94.759,8.881,115.759,5.359c21-3.521,32.333-123.721,28.333-156.621s-83.333-40.449-92.667-8.008
							C306.873,212.619,273.546,307.909,261.876,313.598z"/>
						
							<linearGradient id="SVGID_00000013893390874941378850000001931639542253896363_" gradientUnits="userSpaceOnUse" x1="333.9567" y1="346.1915" x2="333.9567" y2="170.7516">
							<stop  offset="0" style="stop-color:#A7206A"/>
							<stop  offset="0.1952" style="stop-color:#AC1F6A"/>
							<stop  offset="0.4195" style="stop-color:#BA1E6A"/>
							<stop  offset="0.658" style="stop-color:#D11B6A"/>
							<stop  offset="0.9049" style="stop-color:#F1186A"/>
							<stop  offset="1" style="stop-color:#FF166A"/>
						</linearGradient>
						<path style="fill:url(#SVGID_00000013893390874941378850000001931639542253896363_);" d="M408.873,188.186
							c-0.852-7.012-5.134-12.867-11.423-17.434c3.323,35.576-7.971,151.088-28.552,154.539c-18.835,3.158-86.734,0.5-109.74-3.814
							c-1.559,6.422-1.928,14.911,5.622,17.971c12.759,5.172,94.759,8.881,115.759,5.359
							C401.54,341.286,412.873,221.085,408.873,188.186z"/>
					</g>
					<g>
						<g>
							<g>
								<path style="fill:#1D1D1B;" d="M514.126,436.63c-1.028,0-1.976-0.655-2.286-1.668l-51.059-167.354
									c-0.379-1.238,0.339-2.542,1.601-2.912c1.261-0.373,2.595,0.332,2.973,1.569l51.059,167.354
									c0.379,1.238-0.339,2.542-1.601,2.912C514.585,436.598,514.353,436.63,514.126,436.63z"/>
							</g>
							<g>
								<path style="fill:#1D1D1B;" d="M463.07,453.286c-0.227,0-0.459-0.032-0.687-0.099c-1.263-0.37-1.981-1.674-1.601-2.912
									l56.255-184.01c0.378-1.237,1.709-1.94,2.973-1.569c1.262,0.37,1.981,1.674,1.601,2.912l-56.255,184.01
									C465.047,452.631,464.098,453.286,463.07,453.286z"/>
							</g>
						</g>
						<g>
							<g>
								<path style="fill:#1D1D1B;" d="M203.5,436.63c-1.028,0-1.976-0.655-2.286-1.668l-51.059-167.354
									c-0.379-1.238,0.339-2.542,1.601-2.912c1.261-0.373,2.595,0.332,2.973,1.569l51.059,167.354
									c0.379,1.238-0.339,2.542-1.601,2.912C203.959,436.598,203.727,436.63,203.5,436.63z"/>
							</g>
							<g>
								<path style="fill:#1D1D1B;" d="M152.445,453.286c-0.227,0-0.459-0.032-0.687-0.099c-1.262-0.37-1.981-1.674-1.601-2.912
									l56.255-184.01c0.378-1.237,1.709-1.94,2.973-1.569c1.262,0.37,1.981,1.674,1.601,2.912l-56.255,184.01
									C154.421,452.631,153.473,453.286,152.445,453.286z"/>
							</g>
						</g>
					</g>
					<g>
						<path style="fill:#E8BB8B;" d="M316.206,418.452c0,0,3.5,8.5,6.5,11.5s5.667,10.25,4.5,13.583
							c-1.167,3.333-30.958,11.192-40.5,12.75c-12.25,2-15.667-4.167-11.167-8.333s26.333-8.833,28-12.333
							c1.667-3.5-1-11.667-1-11.667L316.206,418.452z"/>
						<path style="fill:#3D39C6;" d="M327.438,440.711l-29.465,8.853c-1.023-3.395-2.712-6.448-5.53-8.659
							c-6.72,2.316-14.43,4.757-16.903,7.048c-4.5,4.167-1.083,10.333,11.167,8.333c2.76-0.451,7.218-1.43,12.185-2.673
							c12.201-3.054,29.986-8.124,30.815-10.493C329.974,442.353,329.06,440.973,327.438,440.711z"/>
						<path style="fill:#E8BB8B;" d="M211.873,397.786c0,0-2.667,6.5-6.167,11.167s-30.167,15.5-30.667,19.667
							c-0.5,4.167,7.833,12.667,23.833,4.667s21.167-11.5,23.667-13.5s-1-11.167,1.333-16.167S211.873,397.786,211.873,397.786z"/>
						<path style="fill:#3D39C6;" d="M223.452,415.299l-19.341,12.398c-0.324-5.477-2.272-10.649-7.036-12.917
							c-9.044,4.989-21.693,10.982-22.036,13.839c-0.5,4.167,7.833,12.667,23.833,4.667c1.908-0.954,3.657-1.842,5.271-2.673
							c11.919-6.139,18.069-9.69,20.271-11.452C225.324,418.433,225.123,416.036,223.452,415.299z"/>
						<g>
							<g>
								<path style="fill:#3A5DDB;" d="M298.022,166.256c0,0-24.112,7.072-33.173,14.143c-9.061,7.072-25.406,63.607-24.738,70.678
									c0.668,7.072,22.529,8.133,23.412,8.616s85.522-1.727,85.522-1.727s-5.746-75.578-6.409-77.788
									c-4.641-1.768-30.148-16.691-34.079-16.191C304.627,164.488,298.022,166.256,298.022,166.256z"/>
								<path style="fill:#3A5DDB;" d="M259.635,251.077c0,0,8.422,17.542,7.961,51.542c42.039-19,78.038-18.5,88.039-14.5
									c-0.499-14.5-14.499-51.5-14.499-51.5L259.635,251.077z"/>
								<g>
									<path style="fill:#E2AA79;" d="M307.395,152.602c0,0,2.337,10.01,5.392,14.6c-3.612,6.184-9.836,9.181-14.765,7.865
										C298.837,168.847,307.395,152.602,307.395,152.602z"/>
									<g>
										<path style="fill:#2525A5;" d="M271.271,140.558l0.404-0.102c0,0,1.416,7.608,4.076,11.658
											c1.578-4.954,0.618-13.475,0.618-13.475L271.271,140.558z"/>
										<path style="fill:#E8BB8B;" d="M274.493,143.894c0,0,1.529,13.245,3.888,17.572s8.535,14.216,17.235,14.642
											c8.7,0.426,11.97-11.516,12.117-15.448c0.147-3.932-0.257-11.391-2.62-17.092c-2.364-5.701-14.406-14.329-22.018-11.824
											C275.482,134.249,274.493,143.894,274.493,143.894z"/>
										<path style="fill:#E8BB8B;" d="M274.493,143.894c0,0,1.529,13.245,3.888,17.572s8.535,14.216,17.235,14.642
											c8.7,0.426,11.97-11.516,12.117-15.448c0.147-3.932-0.257-11.391-2.62-17.092c-2.364-5.701-14.406-14.329-22.018-11.824
											C275.482,134.249,274.493,143.894,274.493,143.894z"/>
										<path style="fill:#E8BB8B;" d="M305.301,146.561c0,0,1.434-5.634,3.429-4.995c1.995,0.639,2.954,5.093,2.414,8.38
											c-0.54,3.288-3.788,6.289-4.861,3.64S305.301,146.561,305.301,146.561z"/>
										<path style="fill:#2525A5;" d="M278.01,139.913c0,0,4.727,3.955,13.483-2.621c2.392-1.409,6.136-1.214,7.786,2.578
											c1.65,3.791,2.439,4.192,3.511,4.694c1.072,0.501,2.102,5.911,2.102,5.911s-0.125-6.255,3.401-8.947
											c0.786-6.378,0.27-20.596-7.666-20.042c-6.074-3.957-12.587-6.352-20.282-0.694c-5.632,4.14-12.728,10.448-18.423,10.691
											c-5.25,0.302-0.26,11.837,7.354,11.709C276.89,143.061,278.01,139.913,278.01,139.913z"/>
										<path style="fill:#3D39C6;" d="M308.557,136.693c-0.022-6.854-1.657-15.647-7.931-15.209
											c-4.323-2.817-8.869-4.839-13.905-3.732c-1.989,0.78-4.34,2.196-6.411,4.766c-4.725,5.864-10.707,7.67-13.185,9.192
											s1.688,9.091,11.027,2.313c1.317,1.845,6.615,1.154,9.227-2.349c0.726,5.105,5.237,0.804,7.257-1.883
											c2.722,2.344,5.272,0.486,6.158,0.524c0.886,0.038,2.047,0.53,3.039,4.501c0.79-0.876,0.035-5.539-0.279-6.487
											c2.311,3.533,3.164,6.134,2.929,10.961c0.688-1.895,0.582-6.617-0.815-10.355
											C306.942,130.626,308.431,133.06,308.557,136.693z"/>
										<path style="fill:#2525A5;" d="M299.228,145.378c0,0-5.433-1.217-7.847,1.559c-0.822,1.137-0.087,2.034,0.687,1.28
											c0.774-0.753,3.094-2.136,6.483-2.147C299.727,146.002,300.502,145.57,299.228,145.378z"/>
										<path style="fill:#2525A5;" d="M276.844,151.827c0,0,3.072-4.034,6.294-3.125c1.259,0.548,1.199,1.608,0.242,1.428
											c-0.957-0.18-3.334-0.007-5.681,1.882C276.849,152.615,276.07,152.697,276.844,151.827z"/>
									</g>
								</g>
								<path style="fill:#E2AA79;" d="M284.488,190.79c0,0,4.538-8.067,5.456-10.067c0.918-1.999,4.114-3.329,0.961-6.518
									c-3.153-3.19-6.847-2.864-10.075-3.377c-3.228-0.513-2.04-2.79-1.613-2.919c0.427-0.129-0.349,1.73,1.616,2.067
									c1.964,0.337,1.931-3.486-0.116-5.636s-5.766,1.301-6.899,4.018c-1.133,2.717-1.21,5.464,1.683,7.871
									c2.893,2.407,5.703,2.768,5.972,3.198s-3.175,5.127-3.175,5.127L284.488,190.79z"/>
								<path style="fill:#546CE2;" d="M279.192,180.178l10.598,4.169c0,0-7.392,41.572-12.469,56.168
									c-5.077,14.596-21.797,26.62-35.114,17.993C228.889,249.881,279.192,180.178,279.192,180.178z"/>
								<path style="fill:#546CE2;" d="M342.637,180.178c0,0,26.624,41.366,32.648,55.268c4.257,9.187-29.039,7.125-29.039,7.125
									s-10.018-19.889-10.607-31.97C335.05,198.52,342.637,180.178,342.637,180.178z"/>
								<path style="fill:#E8BB8B;" d="M295.635,243.646c0,0-17.895,0.172-19.874,0.799c-6.471,2.049-11.221,11.174-10.971,13.174
									c0.25,2,29.283,0,29.283,0L295.635,243.646z"/>
								<path style="fill:#546CE2;" d="M292.264,242.342l1.308,16.165c0,0,42.662,1.577,58.112,1.241s28.329-7.617,24.222-22.944
									S292.264,242.342,292.264,242.342z"/>
							</g>
							<path style="fill:#0D2F8E;" d="M352.196,287.159c0,0,8.539,18.123-3.15,34.127c-11.689,16.004-84.037-3.539-87.171-3.164
								c-3.134,0.375-34.585,86.73-36.274,89.45c-13.937-3.328-17.513-7.47-17.513-7.47s21.202-101.207,27.201-109.983
								c5.999-8.776,82.496-8.406,82.496-8.406L352.196,287.159z"/>
							<path style="fill:#0E3A9B;" d="M299.634,427.286c0,0-30.441-73.5-36.018-94c-5.577-20.5,2.923-29,15.923-27s19,35,26.5,64.5
								s13.5,48.5,13.5,48.5S316.729,425.286,299.634,427.286z"/>
						</g>
					</g>
					<g>
						<g>
							<g>
								<rect x="131.561" y="257.619" style="fill:#E8A30A;" width="408.646" height="18.287"/>
							</g>
						</g>
						<g>
							<g>
								<rect x="441.54" y="257.619" style="fill:#E58D00;" width="98.667" height="18.287"/>
							</g>
						</g>
					</g>
				</g>
				<g>
					<polygon style="fill:#3D39C6;" points="252.578,257.619 160.837,257.619 146.147,201.952 237.888,201.952 					"/>
					<polygon style="fill:#2121AA;" points="249.454,257.619 157.713,257.619 143.024,201.952 234.764,201.952 					"/>
				</g>
				<g>
					<g>
						<g>
							<g>
								<rect x="447.238" y="242.568" style="fill:#FFFFFF;" width="66.345" height="14.504"/>
								<polygon style="fill:#3A5DDB;" points="514.815,256.524 447.786,256.524 447.786,243.115 514.815,243.115 514.815,242.02 
									446.691,242.02 446.691,257.619 514.815,257.619 								"/>
							</g>
							
								<rect x="400.93" y="242.123" transform="matrix(-1 -1.224647e-16 1.224647e-16 -1 848.7675 499.742)" style="fill:#3A5DDB;" width="46.907" height="15.496"/>
							<polygon style="fill:#3A5DDB;" points="455.064,255.983 452.668,254.066 450.273,255.983 450.273,245.374 455.064,245.374 
															"/>
						</g>
						<g>
							<g>
								<rect x="465.252" y="211.585" style="fill:#FFFFFF;" width="52.921" height="14.504"/>
								<polygon style="fill:#FFD00D;" points="519.156,225.541 465.689,225.541 465.689,212.133 519.156,212.133 519.156,211.038 
									464.816,211.038 464.816,226.636 519.156,226.636 								"/>
							</g>
							
								<rect x="428.314" y="211.14" transform="matrix(-1 -1.224647e-16 1.224647e-16 -1 894.0436 437.7768)" style="fill:#FFB600;" width="37.416" height="15.496"/>
							<polygon style="fill:#FFD00D;" points="471.494,225 469.583,223.084 467.672,225 467.672,214.391 471.494,214.391 							"/>
						</g>
						<g>
							<g>
								<rect x="455.89" y="196.089" style="fill:#FFFFFF;" width="52.921" height="14.504"/>
								<polygon style="fill:#4AAEFF;" points="509.794,210.045 456.327,210.045 456.327,196.637 509.794,196.637 509.794,195.542 
									455.453,195.542 455.453,211.14 509.794,211.14 								"/>
							</g>
							
								<rect x="418.952" y="195.542" transform="matrix(-1 -1.224647e-16 1.224647e-16 -1 875.3192 406.6819)" style="fill:#4AAEFF;" width="37.416" height="15.599"/>
							<polygon style="fill:#4AAEFF;" points="462.132,209.504 460.221,207.588 458.31,209.504 458.31,198.895 462.132,198.895 
															"/>
						</g>
						<g>
							<g>
								<rect x="464.92" y="227.081" style="fill:#FFFFFF;" width="66.345" height="14.504"/>
								<polygon style="fill:#FF66C8;" points="532.497,241.037 465.468,241.037 465.468,227.629 532.497,227.629 532.497,226.534 
									464.373,226.534 464.373,242.133 532.497,242.133 								"/>
							</g>
							
								<rect x="418.612" y="226.636" transform="matrix(-1 -1.224647e-16 1.224647e-16 -1 884.1306 468.769)" style="fill:#FF24A7;" width="46.907" height="15.496"/>
							<polygon style="fill:#FF66C8;" points="472.745,240.496 470.35,238.58 467.954,240.496 467.954,229.888 472.745,229.888 
															"/>
						</g>
					</g>
					<g>
						<g>
							<g>
								<rect x="419.844" y="180.49" style="fill:#FFFFFF;" width="66.345" height="14.504"/>
								<polygon style="fill:#FFD00D;" points="418.612,194.446 485.641,194.446 485.641,181.038 418.612,181.038 418.612,179.943 
									486.736,179.943 486.736,195.542 418.612,195.542 								"/>
							</g>
							<rect x="485.59" y="180.045" style="fill:#FFB600;" width="46.907" height="15.496"/>
							<polygon style="fill:#FFD00D;" points="478.363,193.905 480.759,191.989 483.154,193.905 483.154,183.297 478.363,183.297 
															"/>
						</g>
						<g>
							<g>
								<rect x="415.254" y="149.508" style="fill:#FFFFFF;" width="52.921" height="14.504"/>
								<polygon style="fill:#4AAEFF;" points="414.271,163.464 467.738,163.464 467.738,150.055 414.271,150.055 414.271,148.96 
									468.611,148.96 468.611,164.559 414.271,164.559 								"/>
							</g>
							<rect x="467.697" y="149.063" style="fill:#4AAEFF;" width="37.416" height="15.496"/>
							<polygon style="fill:#4AAEFF;" points="461.933,162.923 463.844,161.006 465.755,162.923 465.755,152.314 461.933,152.314 
															"/>
						</g>
						<g>
							<g>
								<rect x="424.616" y="134.012" style="fill:#FFFFFF;" width="52.921" height="14.504"/>
								<polygon style="fill:#3A5DDB;" points="423.633,147.968 477.1,147.968 477.1,134.559 423.633,134.559 423.633,133.464 
									477.974,133.464 477.974,149.063 423.633,149.063 								"/>
							</g>
							<rect x="477.059" y="133.464" style="fill:#3A5DDB;" width="37.416" height="15.599"/>
							<polygon style="fill:#3A5DDB;" points="471.295,147.427 473.206,145.51 475.117,147.427 475.117,136.818 471.295,136.818 
															"/>
						</g>
						<g>
							<g>
								<rect x="402.162" y="165.004" style="fill:#FFFFFF;" width="66.345" height="14.504"/>
								<polygon style="fill:#FF66C8;" points="400.93,178.96 467.959,178.96 467.959,165.551 400.93,165.551 400.93,164.456 
									469.054,164.456 469.054,180.055 400.93,180.055 								"/>
							</g>
							<rect x="467.908" y="164.559" style="fill:#FF24A7;" width="46.907" height="15.496"/>
							<polygon style="fill:#FF66C8;" points="460.682,178.419 463.077,176.502 465.473,178.419 465.473,167.81 460.682,167.81 
															"/>
						</g>
					</g>
				</g>
				<g>
					<path style="fill:#FF24A7;" d="M581.792,321.371c0,0-5.572,5.327,4.888,15.089c10.46,9.762,13.528-7.252,12.691-12.691
						s8.647,1.674,16.317,3.487c7.671,1.813,9.55-11.576,6.448-18.549c-3.101-6.973,8.614,2.51,14.611-2.789
						c5.997-5.3-3.487-16.875-2.929-19.804s14.365,1.116,15.48-5.997c1.116-7.113-7.113-7.531-6.555-13.249
						s12.273-13.11,5.718-16.038s-19.246-1.813-25.243,6.973s-7.671-6.136-15.341-3.347c-7.671,2.789-8.228,10.181-4.463,19.525
						c3.766,9.344-9.546-1.255-17.604,2.929s-5.268,10.041-2.897,18.828c2.371,8.786-8.856-0.384-15.55,4.323
						C561.606,304.109,555.008,321.065,581.792,321.371z"/>
					<path style="fill:#22D5FF;" d="M578.882,264.091c0,0-2.568,6.983-16.872,6.67c-14.304-0.313-4.623-14.637-0.226-17.947
						c4.396-3.31-7.359-4.838-14.117-8.895c-6.758-4.057,1.244-14.955,8.333-17.782s-7.92-4.216-8.513-12.197
						c-0.594-7.981,14.277-9.648,15.923-12.134c1.645-2.486-11.064-9.23-6.897-15.101c4.167-5.871,10.35-0.426,13.943-4.91
						c3.593-4.483,0.365-17.954,7.103-15.475c6.738,2.479,15.045,12.138,13.205,22.616c-1.84,10.477,9.776,0.962,13.32,8.314
						c3.544,7.352-1.216,13.034-10.436,17.095c-9.219,4.061,7.711,5.766,10.559,14.387s-3.238,10.867-11.07,15.503
						c-7.831,4.635,4.843,6.451,8.115,13.952C603.707,263.812,596.036,279.153,578.882,264.091z"/>
					<path style="fill:#8540F2;" d="M540.237,311.818c0,0-1.41,7.305-15.579,9.298c-14.168,1.993-6.918-13.702-3.111-17.676
						c3.806-3.974-8.042-3.591-15.364-6.508c-7.322-2.917-1.179-14.96,5.362-18.891c6.541-3.931-8.495-2.887-10.365-10.668
						s12.539-11.82,13.762-14.538c1.224-2.719-12.405-7.329-9.237-13.794s10.147-2.086,12.971-7.089
						c2.824-5.003-2.529-17.779,4.52-16.416c7.049,1.363,16.802,9.559,16.672,20.196s9.803-0.624,14.485,6.062
						c4.681,6.686,0.897,13.06-7.549,18.551c-8.446,5.492,8.539,4.45,12.737,12.5s-1.447,11.247-8.431,17.082
						c-6.983,5.835,5.818,5.587,10.254,12.464C564.693,307.548,559.591,323.923,540.237,311.818z"/>
					<path style="fill:#FF24A7;" d="M512.025,309.062c0,0-1.875,7.199-16.142,8.281s-6.026-14.117-1.973-17.839
						s-7.795-4.099-14.916-7.478c-7.12-3.38-0.218-15.005,6.561-18.509c6.78-3.504-8.293-3.425-9.661-11.31
						c-1.368-7.885,13.27-10.992,14.665-13.627s-11.91-8.109-8.335-14.358c3.575-6.249,10.259-1.432,13.398-6.244
						c3.139-4.812-1.385-17.904,5.562-16.093c6.947,1.811,16.156,10.616,15.344,21.222c-0.811,10.607,9.823,0.005,14.067,6.977
						c4.244,6.972,0.059,13.09-8.722,18.03c-8.78,4.94,8.236,4.988,11.91,13.29c3.674,8.302-2.165,11.131-9.508,16.507
						c-7.343,5.376,5.448,5.949,9.435,13.095C536.705,306.367,530.565,322.382,512.025,309.062z"/>
					<g>
						<path style="fill:#FF55C2;" d="M563.447,377.196c-0.055,0-0.111-0.004-0.167-0.011c-0.687-0.091-1.17-0.722-1.079-1.409
							c0.083-0.622,2.13-15.479,11.859-36.939c8.962-19.769,26.425-48.996,58.721-75.961c0.532-0.445,1.324-0.373,1.768,0.159
							c0.445,0.532,0.373,1.324-0.159,1.768c-31.892,26.629-49.142,55.467-57.998,74.971c-9.6,21.143-11.681,36.183-11.701,36.332
							C564.606,376.737,564.067,377.196,563.447,377.196z"/>
					</g>
					<g>
						<path style="fill:#71EBFF;" d="M549.315,373.004c-0.169,0-0.342-0.034-0.507-0.107c-0.634-0.28-0.921-1.021-0.641-1.656
							c0.114-0.257,11.494-26.197,20.582-62.113c8.374-33.094,16.462-81.672,7.436-125.158c-0.141-0.679,0.295-1.343,0.974-1.484
							c0.675-0.14,1.343,0.295,1.484,0.974c9.125,43.969,0.973,92.967-7.472,126.329c-9.142,36.11-20.594,62.207-20.708,62.467
							C550.257,372.726,549.797,373.004,549.315,373.004z"/>
					</g>
					<g>
						<path style="fill:#9E6CFF;" d="M537.324,381.59c-0.038,0-0.077-0.002-0.115-0.005c-0.691-0.063-1.2-0.673-1.137-1.364
							c0.095-1.039,9.252-104.411-8.284-148.552c-0.257-0.644,0.059-1.374,0.703-1.63c0.642-0.256,1.374,0.058,1.629,0.703
							c17.757,44.696,8.547,148.661,8.452,149.706C538.513,381.1,537.966,381.59,537.324,381.59z"/>
					</g>
					<g>
						<path style="fill:#FF55C2;" d="M526.164,371.855c-0.553,0-1.059-0.368-1.211-0.927c-0.216-0.801-21.706-80.766-22.915-134.98
							c-0.016-0.693,0.534-1.267,1.227-1.283c0.65-0.016,1.267,0.534,1.283,1.227c1.202,53.913,22.612,133.583,22.828,134.381
							c0.181,0.669-0.215,1.358-0.884,1.54C526.383,371.841,526.273,371.855,526.164,371.855z"/>
					</g>
					<polygon style="fill:#6821CE;" points="524.535,445.985 535.734,445.985 550.353,445.985 561.551,445.985 577.415,359.44 
						550.353,359.44 535.734,359.44 508.671,359.44 					"/>
				</g>
			</g>
			<g>
				<path style="fill:#FFB600;" d="M142.004,191.805l-14.512-10.411c-1.09-0.782-2.397-1.202-3.738-1.202h-23.724
					c-3.541,0-6.412-2.871-6.412-6.412v-17.67c0-3.541,2.871-6.412,6.412-6.412h35.561c3.541,0,6.412,2.871,6.412,6.412V191.805z"/>
			</g>
			<g>
				<polygon style="fill:#FF24A7;" points="186.718,126.85 208.089,141.263 229.459,126.85 				"/>
				<polygon style="fill:#FF24A7;" points="186.718,128.893 186.718,155.677 229.459,155.677 229.459,129.207 208.089,143.638 				
					"/>
			</g>
			<g>
				<g>
					<g>
						<ellipse style="fill:#4AAEFF;" cx="152.904" cy="113.301" rx="21.229" ry="17.234"/>
						<polygon style="fill:#4AAEFF;" points="150.393,127.339 137.839,137.611 139.208,123.23 						"/>
					</g>
				</g>
				<g>
					
						<line style="fill:none;stroke:#FFFFFF;stroke-linecap:round;stroke-miterlimit:10;" x1="140.064" y1="108.966" x2="167.028" y2="108.966"/>
					<g>
						
							<line style="fill:none;stroke:#FFFFFF;stroke-linecap:round;stroke-miterlimit:10;" x1="140.064" y1="111.133" x2="167.028" y2="111.133"/>
					</g>
					<g>
						
							<line style="fill:none;stroke:#FFFFFF;stroke-linecap:round;stroke-miterlimit:10;" x1="140.064" y1="113.301" x2="167.028" y2="113.301"/>
					</g>
					<g>
						
							<line style="fill:none;stroke:#FFFFFF;stroke-linecap:round;stroke-miterlimit:10;" x1="140.064" y1="115.468" x2="167.028" y2="115.468"/>
					</g>
					<g>
						
							<line style="fill:none;stroke:#FFFFFF;stroke-linecap:round;stroke-miterlimit:10;" x1="140.064" y1="117.636" x2="167.028" y2="117.636"/>
					</g>
				</g>
			</g>
			<g>
				<path style="fill:#8540F2;" d="M162.34,194.742l10.46-7.504h15.61c2.869,0,5.196-2.326,5.196-5.196v-9.313
					c0-2.869-2.326-5.196-5.196-5.196h-20.874c-2.869,0-5.196,2.326-5.196,5.196V194.742z"/>
			</g>
		</g>
	</g>
</g>
</svg>
