<?xml version="1.0" standalone="no"?>
<!DOCTYPE svg PUBLIC "-//W3C//DTD SVG 20010904//EN"
 "http://www.w3.org/TR/2001/REC-SVG-20010904/DTD/svg10.dtd">
<svg version="1.0" xmlns="http://www.w3.org/2000/svg"
 width="1600.000000pt" height="1600.000000pt" viewBox="0 0 1600.000000 1600.000000"
 preserveAspectRatio="xMidYMid meet">

<g transform="translate(0.000000,1600.000000) scale(0.100000,-0.100000)"
fill="#000000" stroke="none">
<path d="M7875 15706 c-33 -7 -78 -22 -100 -33 -86 -45 -164 -155 -226 -318
-15 -38 -50 -131 -78 -205 -28 -74 -63 -166 -78 -205 -14 -38 -39 -100 -55
-137 -15 -36 -28 -71 -28 -77 0 -6 -25 -75 -55 -154 -49 -125 -128 -331 -180
-467 -9 -25 -30 -79 -47 -120 -16 -41 -40 -104 -53 -140 -13 -36 -38 -99 -55
-140 -18 -41 -45 -109 -60 -150 -16 -41 -43 -113 -60 -160 -18 -47 -45 -119
-60 -160 -48 -130 -111 -293 -131 -337 -10 -23 -34 -86 -54 -140 -20 -54 -49
-129 -65 -168 -16 -38 -45 -113 -65 -165 -20 -52 -47 -120 -60 -151 -14 -31
-25 -60 -25 -65 0 -4 -9 -26 -20 -48 -11 -23 -28 -66 -39 -96 -10 -30 -33 -91
-51 -135 -17 -44 -44 -114 -60 -155 -119 -315 -174 -457 -211 -537 -10 -24
-19 -45 -19 -48 0 -7 -65 -177 -90 -235 -10 -25 -31 -76 -46 -115 -14 -38 -41
-106 -60 -150 -18 -44 -58 -145 -89 -225 -123 -319 -177 -457 -195 -500 -11
-25 -40 -99 -65 -165 -26 -66 -62 -158 -82 -205 -19 -47 -48 -116 -63 -155
-15 -38 -42 -104 -59 -145 -18 -41 -41 -97 -51 -125 -17 -47 -101 -250 -170
-415 -18 -41 -42 -102 -55 -135 -13 -33 -40 -98 -60 -145 -20 -47 -47 -112
-60 -145 -38 -97 -75 -188 -90 -220 -17 -36 -109 -266 -140 -350 -12 -33 -29
-73 -37 -90 -9 -16 -32 -73 -53 -125 -33 -87 -156 -380 -226 -540 -15 -36 -44
-105 -63 -155 -19 -49 -58 -142 -86 -205 -28 -63 -54 -122 -57 -130 -8 -24
-74 -181 -94 -227 -11 -23 -19 -45 -19 -49 0 -4 -13 -36 -30 -71 -16 -34 -30
-66 -30 -69 0 -5 -31 -78 -80 -189 -10 -22 -50 -119 -90 -215 -39 -96 -93
-225 -121 -286 -27 -61 -49 -115 -49 -120 0 -5 -11 -31 -24 -59 -33 -68 -96
-211 -96 -218 0 -4 -11 -30 -24 -59 -29 -65 -91 -208 -116 -268 -24 -58 -209
-470 -220 -492 -5 -9 -61 -130 -126 -270 -311 -677 -468 -983 -823 -1609 -72
-127 -388 -611 -479 -734 -259 -349 -461 -559 -662 -686 -227 -144 -426 -219
-757 -283 -73 -15 -149 -34 -168 -44 l-35 -17 3 -114 2 -115 45 -23 45 -23
2902 -1 c2622 0 2904 1 2932 15 17 9 35 25 41 35 13 25 13 207 0 232 -18 33
-67 49 -208 70 -398 57 -680 161 -854 316 -274 244 -371 510 -371 1018 1 294
25 486 94 735 12 41 28 102 36 135 17 73 116 367 151 450 125 298 214 454 321
567 159 168 404 287 730 355 174 37 417 38 596 4 126 -24 289 -65 415 -106 41
-13 161 -51 265 -85 429 -138 526 -155 885 -155 252 0 284 2 380 23 167 38
428 128 567 197 218 108 432 253 480 327 24 36 25 39 9 63 -10 16 -55 43 -119
73 -109 50 -217 105 -498 251 -271 140 -475 218 -704 270 -216 49 -501 63
-745 37 -323 -35 -497 -95 -875 -306 -196 -109 -446 -196 -726 -254 -195 -40
-272 -33 -254 23 17 55 153 199 325 345 179 152 473 374 615 464 338 214 572
324 970 457 242 81 345 109 571 154 285 57 343 62 874 71 560 10 666 14 835
36 280 36 538 131 765 281 287 190 475 403 633 718 107 213 195 491 200 629 2
66 1 70 -25 85 -23 13 -36 14 -100 2 -182 -32 -435 -66 -718 -96 -107 -12
-316 -47 -415 -70 -427 -100 -727 -302 -973 -655 -29 -41 -83 -118 -120 -171
-194 -276 -329 -385 -601 -483 -106 -38 -274 -74 -690 -147 -220 -38 -254 -36
-259 21 -4 48 33 106 214 335 191 243 227 289 306 405 159 231 306 500 418
764 46 108 147 295 199 366 112 154 239 265 541 470 394 268 563 416 762 672
130 166 255 389 301 533 97 313 112 409 112 745 0 224 -3 290 -17 355 -10 44
-25 130 -33 190 -8 61 -22 130 -30 155 -8 25 -19 74 -25 110 -15 88 -58 227
-77 245 -8 8 -31 15 -52 15 -39 0 -44 -3 -326 -187 -646 -421 -973 -734 -1183
-1133 -88 -167 -178 -464 -193 -635 -5 -60 -14 -155 -20 -210 -6 -55 -14 -320
-19 -590 -9 -506 -16 -614 -51 -725 -54 -169 -88 -259 -138 -365 -24 -49 -50
-106 -58 -125 -44 -103 -196 -341 -323 -504 -245 -317 -511 -559 -970 -882
-115 -81 -659 -441 -737 -488 -106 -63 -160 -60 -147 9 5 27 96 266 129 340 7
17 34 84 59 150 25 66 64 165 86 220 147 354 365 897 437 1090 25 66 51 134
59 151 8 17 35 87 59 155 24 68 60 167 80 219 20 52 45 120 55 150 10 30 37
100 60 155 23 55 50 125 60 155 18 54 109 292 205 535 26 66 69 179 97 250 27
72 69 180 93 240 24 61 55 139 68 175 14 36 39 101 57 145 45 113 119 303 170
435 16 41 43 111 60 155 17 44 40 103 50 130 10 28 34 91 55 140 20 50 47 119
60 155 13 36 37 103 55 150 17 47 42 116 56 155 29 82 63 135 86 135 21 0 79
-77 98 -129 7 -20 26 -60 42 -88 44 -79 77 -74 183 27 105 101 429 364 617
503 117 86 341 245 452 321 211 144 207 135 141 311 -14 39 -35 88 -46 111
-10 22 -19 45 -19 50 0 9 -42 118 -94 244 -13 30 -36 89 -51 130 -16 41 -53
136 -83 210 -29 74 -61 155 -69 180 -9 25 -33 86 -53 135 -46 109 -146 363
-167 425 -8 25 -19 50 -23 55 -5 6 -21 42 -35 80 -71 188 -85 226 -115 300
-18 44 -41 105 -51 135 -20 57 -54 143 -94 240 -24 57 -62 156 -115 300 -39
106 -97 255 -115 295 -7 17 -18 46 -24 67 -20 62 -109 259 -144 317 -39 65
-127 134 -200 156 -73 22 -172 26 -242 11z"/>
<path d="M12140 5653 c-22 -4 -977 -193 -1225 -243 -55 -11 -165 -32 -245 -46
-241 -42 -264 -62 -216 -183 14 -36 26 -70 26 -74 0 -4 9 -26 20 -50 11 -23
41 -100 66 -172 46 -127 69 -190 134 -365 17 -47 42 -114 55 -150 13 -36 38
-103 55 -150 77 -204 93 -249 115 -320 22 -70 31 -95 86 -232 11 -29 29 -80
39 -113 22 -69 50 -153 85 -245 85 -230 231 -751 250 -895 3 -27 16 -97 28
-155 18 -90 21 -140 22 -345 0 -227 -2 -247 -28 -363 -62 -277 -205 -485 -442
-644 -215 -144 -455 -233 -795 -293 -227 -40 -236 -48 -232 -177 3 -100 10
-120 49 -146 26 -16 183 -17 2947 -17 1919 0 2930 3 2950 10 43 14 66 64 66
143 0 123 -29 147 -230 196 -577 142 -930 379 -1306 876 -208 275 -459 678
-646 1040 -158 303 -488 970 -488 985 0 2 -35 77 -79 167 -43 90 -82 174 -86
188 -8 24 -49 113 -81 175 -9 17 -36 77 -61 135 -25 58 -60 137 -78 175 -41
90 -56 123 -95 215 -18 41 -42 95 -55 120 -12 25 -26 56 -30 70 -4 14 -35 88
-70 165 -34 77 -84 190 -110 250 -26 61 -64 146 -85 190 -20 44 -52 115 -71
159 -45 105 -72 126 -152 125 -34 -1 -73 -4 -87 -6z"/>
</g>
</svg>
