<?xml version="1.0" standalone="no"?>
<!DOCTYPE svg PUBLIC "-//W3C//DTD SVG 20010904//EN"
 "http://www.w3.org/TR/2001/REC-SVG-20010904/DTD/svg10.dtd">
<svg version="1.0" xmlns="http://www.w3.org/2000/svg"
 width="612.000000pt" height="129.000000pt" viewBox="0 0 612.000000 129.000000"
 preserveAspectRatio="xMidYMid meet">

<g transform="translate(0.000000,129.000000) scale(0.100000,-0.100000)"
fill="#000000" stroke="none">
<path d="M630 1214 c-258 -51 -441 -227 -487 -468 -19 -96 -7 -219 29 -307 90
-221 295 -362 528 -362 220 0 399 108 508 305 79 142 85 338 15 497 l-24 55
-29 -30 -29 -29 24 -70 c59 -169 17 -366 -104 -492 -118 -122 -287 -176 -453
-145 -196 37 -355 205 -389 410 -40 241 135 492 379 543 81 16 217 6 282 -22
l52 -22 30 31 31 30 -40 20 c-77 40 -251 70 -323 56z"/>
<path d="M1057 1132 l-78 -78 7 -43 7 -42 -152 -153 c-83 -84 -151 -155 -151
-158 0 -3 7 -11 15 -18 13 -11 38 10 170 140 l154 153 44 -6 43 -6 78 78 78
79 -31 6 c-17 3 -44 8 -59 11 -26 5 -30 11 -38 61 l-9 55 -78 -79z"/>
<path d="M623 1030 c-117 -25 -220 -107 -276 -220 -30 -60 -32 -72 -32 -165 0
-92 2 -105 32 -166 40 -81 121 -160 200 -196 49 -22 73 -26 154 -27 91 -1 99
1 171 37 162 79 249 247 218 416 -11 60 -47 151 -60 151 -3 0 -18 -12 -33 -28
l-26 -27 21 -45 c31 -69 29 -169 -6 -242 -106 -222 -415 -245 -544 -40 -131
208 14 476 257 475 41 0 85 -8 118 -21 l52 -20 25 27 c14 15 26 30 26 33 0 3
-26 17 -58 31 -65 30 -171 42 -239 27z"/>
<path d="M2795 1023 c-159 -21 -269 -120 -311 -278 -48 -178 32 -370 188 -452
49 -26 62 -28 168 -28 112 0 117 1 178 34 205 111 255 401 104 599 -64 85
-211 140 -327 125z m161 -44 c64 -24 145 -106 179 -182 46 -99 51 -247 12
-337 -25 -59 -73 -116 -123 -146 -46 -27 -55 -29 -159 -29 -103 0 -113 2 -164
30 -64 35 -119 95 -157 173 -27 54 -29 65 -29 182 0 135 9 166 71 239 79 94
230 122 370 70z"/>
<path d="M1640 1003 c39 -14 40 -28 40 -363 0 -354 0 -355 -55 -363 -16 -2 11
-4 60 -4 50 0 77 2 60 4 -56 9 -55 0 -55 346 0 179 4 317 9 312 4 -6 75 -142
157 -302 82 -161 151 -293 154 -293 7 0 70 127 70 138 -1 4 -13 -15 -27 -43
l-26 -49 -47 94 c-26 52 -97 192 -158 310 l-110 215 -43 2 c-24 1 -37 0 -29
-4z"/>
<path d="M2311 963 c-16 -34 -18 -43 -7 -34 15 12 16 -16 16 -300 0 -173 -4
-320 -9 -327 -5 -8 -24 -18 -42 -22 -24 -6 -2 -8 71 -7 58 0 91 2 73 4 -17 2
-36 10 -42 17 -8 9 -10 120 -9 357 l3 343 25 7 c21 6 18 7 -16 8 -38 1 -41 -1
-63 -46z"/>
<path d="M3308 1000 l22 -9 0 -350 0 -351 -22 -4 c-13 -3 -32 -7 -43 -9 -11
-3 23 -5 75 -5 68 0 84 2 57 8 -20 4 -39 9 -42 12 -3 3 -4 150 -3 328 l3 323
151 -299 c84 -164 156 -300 160 -301 8 -2 153 287 162 321 1 6 -29 -51 -68
-126 -38 -76 -74 -138 -78 -138 -4 0 -76 137 -160 305 l-152 305 -42 -1 c-36
0 -39 -2 -20 -9z"/>
<path d="M3955 940 c-39 -78 -47 -110 -10 -40 l24 45 1 -321 c0 -347 1 -338
-55 -347 -16 -2 110 -5 281 -6 l311 -1 12 41 c7 23 15 48 17 58 3 9 -5 -3 -16
-26 -15 -28 -32 -45 -52 -52 -45 -16 -420 -15 -436 1 -8 8 -12 64 -12 185 l0
173 133 0 c90 0 137 -4 145 -12 9 -9 12 -5 12 20 0 29 -2 32 -19 22 -11 -5
-76 -10 -145 -10 l-126 0 0 165 0 165 203 0 c226 0 236 -3 257 -66 7 -19 14
-34 16 -32 2 2 -4 27 -13 56 l-17 52 -238 0 -238 0 -35 -70z"/>
<path d="M4635 1003 c45 -11 45 -9 45 -357 0 -182 -4 -337 -9 -344 -5 -8 -24
-18 -42 -22 -25 -6 -10 -8 56 -8 66 0 81 2 56 8 -18 4 -37 14 -42 22 -11 16
-12 648 -1 648 4 -1 35 -38 68 -83 131 -174 437 -573 455 -592 19 -19 19 -14
19 342 0 379 -1 375 45 386 11 2 -11 5 -50 5 -38 0 -61 -2 -50 -5 44 -10 45
-21 45 -346 0 -253 -2 -307 -13 -299 -7 6 -123 155 -258 331 l-244 321 -50 -1
c-27 -1 -41 -4 -30 -6z"/>
<path d="M5371 968 c1 -24 4 -34 6 -23 12 50 28 55 165 55 l128 0 0 -342 c0
-189 -4 -349 -9 -356 -5 -8 -24 -18 -42 -22 -24 -6 -2 -8 71 -7 58 0 92 2 75
4 -57 9 -55 -2 -55 374 l0 349 123 0 c67 0 128 -4 136 -9 7 -5 19 -31 27 -57
11 -42 13 -45 13 -18 1 17 -2 46 -5 63 l-6 31 -314 0 -314 0 1 -42z"/>
<path d="M5363 885 c0 -22 2 -30 4 -17 2 12 2 30 0 40 -3 9 -5 -1 -4 -23z"/>
<path d="M2261 863 c-10 -26 -10 -27 4 -9 8 11 15 23 15 28 0 15 -7 8 -19 -19z"/>
<path d="M615 841 c-43 -19 -100 -78 -116 -118 -12 -33 -11 -113 2 -154 46
-135 241 -184 348 -86 55 51 88 176 60 229 -11 20 -11 19 -40 -8 -16 -15 -29
-38 -29 -51 0 -132 -173 -191 -245 -85 -62 92 2 212 114 212 21 0 37 9 56 32
25 30 26 33 9 39 -35 14 -119 9 -159 -10z"/>
<path d="M3895 819 c-9 -17 -15 -33 -13 -35 3 -2 12 12 21 31 21 43 13 47 -8
4z"/>
<path d="M2182 703 c-29 -58 -51 -107 -49 -109 2 -2 27 44 56 102 28 59 50
108 48 110 -1 2 -27 -44 -55 -103z"/>
<path d="M3850 725 c-6 -15 -13 -32 -16 -36 -3 -5 -3 -9 0 -9 9 0 38 61 32 67
-3 3 -10 -7 -16 -22z"/>
<path d="M2103 543 c-3 -10 -8 -22 -10 -28 -3 -5 3 -1 11 9 16 20 21 36 11 36
-3 0 -8 -8 -12 -17z"/>
</g>
</svg>
